<svg width="377" height="80" viewBox="0 0 377 80" fill="none" xmlns="http://www.w3.org/2000/svg">
<path d="M0 2.68248C0 2.68248 22.1419 8.53075 31.68 2.68248C41.2181 -3.16579 63.36 2.68248 63.36 2.68248V23.8612C63.36 23.8612 43.2619 17.5389 31.68 23.8612C20.0981 30.1836 0 23.8612 0 23.8612V2.68248Z" fill="white"/>
<path d="M0 29.3053C0 29.3053 22.1419 35.1536 31.68 29.3053C41.2181 23.457 63.36 29.3053 63.36 29.3053V50.4841C63.36 50.4841 43.2619 44.1617 31.68 50.4841C20.0981 56.8064 0 50.4841 0 50.4841V29.3053Z" fill="white"/>
<path d="M0 55.9282C0 55.9282 22.1419 61.7761 31.68 55.9278V77.1069C20.0981 83.4293 0 77.1069 0 77.1069V55.9282Z" fill="white"/>
<path d="M302.375 78.3747C284.872 82.2126 261.236 80.3654 254.703 60.5719C252.469 53.8002 252.617 46.5895 254.816 39.8525C257.203 32.5332 262.557 27.1958 269.633 24.2837C278.761 20.5284 291.365 20.172 300.449 24.9748L300.519 0.713135H317.253L317.261 71.8117C312.815 75.1019 307.83 77.1751 302.375 78.3747ZM300.48 55.8038L300.449 41.2999C302.827 42.0996 304.335 43.3862 306.391 44.7162C305.269 41.2608 302.692 38.8963 299.567 37.362C289.97 32.6592 273.371 33.3373 270.82 46.3113C269.246 54.3174 271.594 62.7016 279.943 65.618C284.633 67.2523 289.922 67.0697 294.503 65.3181C298.585 63.7578 300.493 60.2024 300.484 55.8038H300.48Z" fill="white"/>
<path d="M236.133 78.3747C218.63 82.2126 194.994 80.3654 188.461 60.5719C186.227 53.8002 186.375 46.5895 188.574 39.8525C190.96 32.5332 196.315 27.1958 203.391 24.2837C212.519 20.5284 225.123 20.172 234.207 24.9748L234.277 0.713135H251.01L251.019 71.8117C246.573 75.1019 241.587 77.1751 236.133 78.3747ZM234.233 55.8038L234.203 41.2999C236.58 42.0996 238.088 43.3862 240.144 44.7162C239.023 41.2608 236.446 38.8963 233.32 37.362C223.724 32.6592 207.125 33.3373 204.573 46.3113C203 54.3174 205.347 62.7016 213.696 65.618C218.386 67.2523 223.676 67.0697 228.257 65.3181C232.338 63.7578 234.246 60.2024 234.238 55.8038H234.233Z" fill="white"/>
<path d="M126.859 62.2322C126.159 42.6299 154.35 41.0956 168.163 45.1248C168.58 30.2774 142.61 34.4369 133.431 37.9706L130.827 27.1958C130.644 26.4309 131.462 25.3443 132.227 25.0835C143.862 21.15 160.569 19.4549 172.001 24.5662C179.359 27.8608 184.57 34.776 184.609 43.0689L184.757 75.2975C183.51 76.0103 182.328 76.5884 181.019 76.9187C166.142 80.6957 127.68 85.1986 126.859 62.2235V62.2322ZM168.506 66.2396L168.454 55.2345C162.404 53.848 143.892 52.1485 143.423 60.5241C142.897 69.8297 162.995 68.152 168.51 66.2353L168.506 66.2396Z" fill="white"/>
<path d="M114.908 78.8397L99.6437 78.9657C99.0613 78.9701 98.305 77.9878 98.305 77.2619V34.8714L89.76 34.7063L89.7991 22.2842L98.305 22.1408C98.3137 17.2467 98.957 12.7308 101.7 8.83644C108.776 -1.20376 125.292 -1.22549 136.249 1.64748L134.358 13.8305C129.795 13.222 125.8 12.357 121.537 12.9916C116.825 13.6957 114.03 17.7553 115.208 22.1843L126.005 22.2625C126.152 26.7132 126.161 30.399 125.961 34.741L114.956 34.8323L114.908 78.8266V78.8397Z" fill="white"/>
<path d="M361.881 60.0806C361.881 63.4187 364.08 65.8744 367.097 66.3612C370.109 66.848 372.856 66.509 376.324 66.2656C376.507 70.4816 376.215 74.5715 375.407 78.805C369.496 80.035 363.724 79.9046 358.052 78.479C350.059 76.4709 345.073 69.8992 345.104 61.541L345.308 7.54126L361.781 7.563L361.994 22.1887L375.685 22.2452L375.711 34.7367L361.855 34.8671L361.877 60.085L361.881 60.0806Z" fill="white"/>
<path d="M325.009 78.9961C324.396 79.0048 323.544 78.7962 323.379 78.4876C323.213 78.179 322.979 77.2532 322.979 76.8055L323.022 22.319L337.883 22.1538C338.165 22.1538 338.839 22.2929 339.043 22.4233C339.313 22.6015 339.521 23.3621 339.521 23.8315L339.478 78.7918L325.009 78.9961Z" fill="white"/>
<path d="M337.964 15.443C333.995 17.7466 329.058 17.7292 325.137 15.6734C321.86 13.9566 320.613 10.3708 321.195 6.9632C322.451 -0.430037 332.704 -1.35582 337.838 1.59974C340.419 3.08621 341.658 5.66796 341.693 8.39316C341.728 11.0575 340.71 13.8479 337.964 15.443Z" fill="white"/>
</svg>
