<svg width="692" height="152" viewBox="0 0 692 152" fill="none" xmlns="http://www.w3.org/2000/svg">
<path d="M0 5.91214C0 5.91214 41.6 16.8464 59.52 5.91214C77.44 -5.02217 119.04 5.91214 119.04 5.91214V45.5093C119.04 45.5093 81.28 33.6887 59.52 45.5093C37.76 57.33 0 45.5093 0 45.5093V5.91214Z" fill="white"/>
<path d="M0 55.6879C0 55.6879 41.6 66.6222 59.52 55.6879C77.44 44.7536 119.04 55.6879 119.04 55.6879V95.2851C119.04 95.2851 81.28 83.4644 59.52 95.2851C37.76 107.106 0 95.2851 0 95.2851V55.6879Z" fill="white"/>
<path d="M0 105.464C0 105.464 41.6 116.397 59.52 105.463V145.061C37.76 156.882 0 145.061 0 145.061V105.464Z" fill="white"/>
<path d="M234.079 43.3594V65.0391H212.985V149.414H184.079V65.0391H169.04V43.3594H184.079V35.3516C184.079 13.0859 197.556 1.36719 218.845 1.36719C225.485 1.36719 230.954 1.95312 236.032 3.125V25C231.931 24.6094 228.806 24.4141 227.243 24.4141C217.868 24.4141 212.985 28.125 212.985 36.9141V43.3594H234.079Z" fill="white"/>
<path d="M238.087 119.727C238.087 96.0938 257.227 88.2812 277.54 87.1094C285.157 86.6211 299.415 85.9375 303.907 85.7422V77.1484C303.712 68.3594 297.657 63.0859 286.915 63.0859C277.149 63.0859 270.899 67.5781 269.337 74.8047H241.798C243.556 56.4453 259.571 41.9922 287.696 41.9922C310.743 41.9922 332.618 52.3438 332.618 77.9297V149.414H305.274V134.766H304.493C299.22 144.531 289.259 151.367 273.438 151.367C253.126 151.367 238.087 140.82 238.087 119.727ZM265.821 118.945C265.821 127.148 272.462 131.445 281.641 131.445C294.727 131.445 304.102 122.656 303.907 111.523V103.711C299.513 103.906 287.208 104.59 282.227 105.078C272.266 106.055 265.821 110.742 265.821 118.945Z" fill="white"/>
<path d="M389.751 151.172C365.532 151.172 346.587 131.836 346.587 96.4844C346.587 60.1562 366.313 41.9922 389.751 41.9922C407.524 41.9922 415.923 52.5391 419.829 61.1328H420.806V8.00781H449.712V149.414H421.196V132.422H419.829C415.727 141.211 406.938 151.172 389.751 151.172ZM398.735 128.125C413.188 128.125 421.391 115.43 421.391 96.2891C421.391 77.1484 413.188 65.0391 398.735 65.0391C384.087 65.0391 376.274 77.7344 376.274 96.2891C376.274 115.039 384.087 128.125 398.735 128.125Z" fill="white"/>
<path d="M508.016 151.172C483.798 151.172 464.852 131.836 464.852 96.4844C464.852 60.1562 484.579 41.9922 508.016 41.9922C525.79 41.9922 534.188 52.5391 538.095 61.1328H539.071V8.00781H567.977V149.414H539.462V132.422H538.095C533.993 141.211 525.204 151.172 508.016 151.172ZM517.001 128.125C531.454 128.125 539.657 115.43 539.657 96.2891C539.657 77.1484 531.454 65.0391 517.001 65.0391C502.352 65.0391 494.54 77.7344 494.54 96.2891C494.54 115.039 502.352 128.125 517.001 128.125Z" fill="white"/>
<path d="M587.22 149.414V43.3594H616.126V149.414H587.22ZM601.673 29.4922C592.884 29.4922 585.852 22.8516 585.852 14.8438C585.852 6.64062 592.884 0 601.673 0C610.266 0 617.298 6.64062 617.298 14.8438C617.298 22.8516 610.266 29.4922 601.673 29.4922Z" fill="white"/>
<path d="M690.446 43.3594V65.0391H670.524V116.797C670.524 125.195 674.626 127.344 680.485 127.539C683.415 127.539 688.493 127.344 692.009 126.953V149.805C688.884 150.391 683.806 150.781 676.579 150.781C655.681 150.781 641.423 141.406 641.618 120.898V65.0391H626.97V43.3594H641.618V17.9688H670.524V43.3594H690.446Z" fill="white"/>
</svg>
