<svg width="52" height="53" viewBox="0 0 52 53" fill="none" xmlns="http://www.w3.org/2000/svg">
<rect x="0.5" y="1" width="51" height="51" rx="25.5" stroke="#F3F2F2"/>
<path d="M35.504 26.725C35.504 26.023 35.441 25.348 35.324 24.7H26V28.5295H31.328C31.0985 29.767 30.401 30.8155 29.3525 31.5175V34.0015H32.552C34.424 32.278 35.504 29.74 35.504 26.725Z" fill="#4285F4"/>
<path d="M26 36.3999C28.673 36.3999 30.914 35.5134 32.552 34.0014L29.3525 31.5174C28.466 32.1114 27.332 32.4624 26 32.4624C23.4215 32.4624 21.239 30.7209 20.4605 28.3809H17.153V30.9459C18.782 34.1814 22.13 36.3999 26 36.3999Z" fill="#34A853"/>
<path d="M20.4605 28.381C20.2625 27.787 20.15 27.1525 20.15 26.5C20.15 25.8475 20.2625 25.213 20.4605 24.619V22.054H17.153C16.46 23.4335 16.0994 24.9561 16.1 26.5C16.1 28.0975 16.4825 29.6095 17.153 30.946L20.4605 28.381Z" fill="#FBBC05"/>
<path d="M26 20.5375C27.4535 20.5375 28.7585 21.037 29.7845 22.018L32.624 19.1785C30.9095 17.581 28.6685 16.6 26 16.6C22.13 16.6 18.782 18.8185 17.153 22.054L20.4605 24.619C21.239 22.279 23.4215 20.5375 26 20.5375Z" fill="#EA4335"/>
</svg>
